<svg width="64" height="64" viewBox="0 0 64 64" fill="none" xmlns="http://www.w3.org/2000/svg">
<rect width="64" height="64" rx="16" fill="#151515"/>
<path d="M15.3847 31.5384C15.3847 22.362 22.8237 14.923 32.0001 14.923C41.1765 14.923 48.6155 22.3634 48.6155 31.5398C48.6155 36.0338 48.6155 40.3084 48.6155 44.8906C48.6155 48.8197 42.7445 50.5805 39.7799 48.0019C38.3657 46.7718 36.8953 45.8094 35.4616 45.3846C32.4156 44.482 27.5495 47.7711 23.3709 51.3691C20.4106 53.9182 15.3847 51.923 15.3847 48.0164V31.5384Z" fill="url(#paint0_radial_5452_164)"/>
<path d="M51.3847 30.6153C51.3847 19.9095 42.7059 11.2307 32.0001 11.2307C21.2943 11.2307 12.6155 19.9095 12.6155 30.6153V38.4701C12.6155 41.7394 16.969 43.4402 19.4478 41.3086C23.735 37.6219 29.4251 33.8218 34.6655 33.8218C37.9215 33.8218 40.8055 35.2889 43.2222 37.2843C45.6888 39.3209 51.3847 37.6628 51.3847 34.464V30.6153Z" fill="url(#paint1_linear_5452_164)"/>
<path d="M50.0001 31.0769C50.0001 21.1357 41.9412 13.0769 32.0001 13.0769C22.059 13.0769 14.0001 21.1357 14.0001 31.0769V40.9388C14.0001 44.4331 18.8494 46.0957 21.3334 43.638C24.7721 40.2357 28.8874 37.1291 32.4501 37.1291C35.778 37.1291 39.4273 39.8397 42.5321 42.9699C44.9915 45.4495 50.0001 43.8244 50.0001 40.332V31.0769Z" fill="url(#paint2_linear_5452_164)" fill-opacity="0.5"/>
<path d="M35.6924 29.6923C35.6924 30.7119 34.8658 31.5384 33.8462 31.5384C32.8266 31.5384 32.0001 30.7119 32.0001 29.6923C32.0001 28.6726 32.8266 27.8461 33.8462 27.8461C34.8658 27.8461 35.6924 28.6726 35.6924 29.6923Z" fill="#151515"/>
<path d="M44.0001 26.923C44.0001 27.9426 43.1735 28.7692 42.1539 28.7692C41.1343 28.7692 40.3078 27.9426 40.3078 26.923C40.3078 25.9034 41.1343 25.0769 42.1539 25.0769C43.1735 25.0769 44.0001 25.9034 44.0001 26.923Z" fill="#151515"/>
<defs>
<radialGradient id="paint0_radial_5452_164" cx="0" cy="0" r="1" gradientUnits="userSpaceOnUse" gradientTransform="translate(51.3847 18.9702) rotate(146.685) scale(41.8827 29.3833)">
<stop offset="0.15" stop-color="#6CF2BF"/>
<stop offset="0.6" stop-color="#6EDFE7"/>
<stop offset="0.9" stop-color="#1A959E"/>
</radialGradient>
<linearGradient id="paint1_linear_5452_164" x1="46.0539" y1="36.486" x2="16.4532" y2="28.3423" gradientUnits="userSpaceOnUse">
<stop stop-color="white" stop-opacity="0.15"/>
<stop offset="1" stop-color="#BDFCF6" stop-opacity="0.3"/>
</linearGradient>
<linearGradient id="paint2_linear_5452_164" x1="46.0539" y1="36.486" x2="16.4532" y2="28.3423" gradientUnits="userSpaceOnUse">
<stop stop-color="white" stop-opacity="0.15"/>
<stop offset="1" stop-color="#BDFCF6" stop-opacity="0.75"/>
</linearGradient>
</defs>
</svg>
