<svg width="513" height="513" viewBox="0 0 513 513" fill="none" xmlns="http://www.w3.org/2000/svg">
<path d="M247.169 65.9414C359.145 64.9097 441.941 165.3 428.228 275.52L428.062 276.816C425.621 295.418 424.051 311.496 424.051 322.37C424.051 338.063 426.434 353.796 429.221 368.409C432.1 383.506 435.185 396.43 437.175 408.691C439.153 420.88 439.562 429.975 437.87 436.368C437.078 439.363 435.887 441.492 434.369 443.079C432.86 444.658 430.588 446.158 426.928 447.24C419.016 449.58 413.567 448.748 408.993 446.691C403.914 444.407 399.258 440.346 393.381 434.698C382.255 424.007 367.652 408.144 341.922 407.416C316.251 406.69 299.703 421.178 286.968 433.25C280.293 439.577 275.002 444.914 269.325 448.934C263.913 452.765 259.008 454.733 253.651 454.733C242.55 454.733 237.112 449.124 228.612 438.625C220.423 428.51 209.937 414.53 189.361 408.106L188.373 407.807C176.482 404.29 165.102 406.646 155.008 410.785C145.092 414.852 135.308 421.13 126.582 426.555C117.457 432.227 109.361 437.055 101.57 439.695C94.068 442.238 87.6651 442.466 81.5032 439.767C74.4869 436.692 72.2414 433.436 71.2415 429.938C69.9525 425.427 70.2653 418.891 72.1556 408.267C75.7808 387.89 84.3577 356.881 84.3577 314.397C84.3577 293.882 83.2582 274.154 81.5042 254.583L81.1448 250.671C71.8017 151.346 145.137 67.5333 245.982 65.9561L247.169 65.9414Z" fill="#97FCEA" stroke="url(#paint0_linear_6223_47571)" stroke-width="19.2"/>
<ellipse cx="231.649" cy="219.855" rx="30" ry="31.5474" fill="#001F2D"/>
<ellipse cx="343.649" cy="219.855" rx="30" ry="31.5474" fill="#001F2D"/>
<defs>
<linearGradient id="paint0_linear_6223_47571" x1="256.333" y1="64.3393" x2="261.985" y2="467.46" gradientUnits="userSpaceOnUse">
<stop offset="0.15" stop-color="#CCFFF6"/>
<stop offset="0.442308" stop-color="#75DCD0"/>
<stop offset="1" stop-color="#3C7878"/>
</linearGradient>
</defs>
</svg>
